HIERARCHY
ROOT Hips
{
  OFFSET 43.0842 91.1655 101.099
  CHANNELS 6 Xposition Yposition Zposition Zrotation Xrotation Yrotation
  JOINT LeftUpLeg
  {
    OFFSET 8.64259 1.95398 -2.38835
    CHANNELS 3 Zrotation Xrotation Yrotation
    JOINT LeftLeg
    {
      OFFSET 43.7702 0 0
      CHANNELS 3 Zrotation Xrotation Yrotation
      JOINT LeftFoot
      {
        OFFSET 40.6238 0 0
        CHANNELS 3 Zrotation Xrotation Yrotation
        JOINT LeftToeBase
        {
          OFFSET 12.7242 0 0
          CHANNELS 3 Zrotation Xrotation Yrotation
          End Site
          {
            OFFSET 0 0 0
          }
        }
      }
    }
  }
  JOINT RightUpLeg
  {
    OFFSET -8.2249 1.95398 -2.59336
    CHANNELS 3 Zrotation Xrotation Yrotation
    JOINT RightLeg
    {
      OFFSET 43.5653 0 0
      CHANNELS 3 Zrotation Xrotation Yrotation
      JOINT RightFoot
      {
        OFFSET 40.6238 0 0
        CHANNELS 3 Zrotation Xrotation Yrotation
        JOINT RightToeBase
        {
          OFFSET 12.7242 0 0
          CHANNELS 3 Zrotation Xrotation Yrotation
          End Site
          {
            OFFSET 0 0 0
          }
        }
      }
    }
  }
  JOINT Spine
  {
    OFFSET 0.165834 0.87714 6.61349
    CHANNELS 3 Zrotation Xrotation Yrotation
    JOINT Spine1
    {
      OFFSET 7.38963 1.71661e-005 0
      CHANNELS 3 Zrotation Xrotation Yrotation
      JOINT Spine2
      {
        OFFSET 11.9445 1.14441e-005 0
        CHANNELS 3 Zrotation Xrotation Yrotation
        JOINT Spine3
        {
          OFFSET 14.7254 4.19617e-005 0
          CHANNELS 3 Zrotation Xrotation Yrotation
          JOINT Spine4
          {
            OFFSET 10.9679 0 0
            CHANNELS 3 Zrotation Xrotation Yrotation
            JOINT RightShoulder
            {
              OFFSET 2.46616 -1.6653 3.69651
              CHANNELS 3 Zrotation Xrotation Yrotation
              JOINT RightArm
              {
                OFFSET 13.0012 0 0
                CHANNELS 3 Zrotation Xrotation Yrotation
                JOINT RightForeArm
                {
                  OFFSET 28.7848 1.52588e-005 0
                  CHANNELS 3 Zrotation Xrotation Yrotation
                  JOINT RightHand
                  {
                    OFFSET 26.5688 1.52588e-005 0
                    CHANNELS 3 Zrotation Xrotation Yrotation
                    End Site
                    {
                      OFFSET 0 0 0
                    }
                  }
                }
              }
            }
            JOINT LeftShoulder
            {
              OFFSET 2.38034 -1.29275 -3.7523
              CHANNELS 3 Zrotation Xrotation Yrotation
              JOINT LeftArm
              {
                OFFSET 16.3182 6.10351e-005 0
                CHANNELS 3 Zrotation Xrotation Yrotation
                JOINT LeftForeArm
                {
                  OFFSET 27.0901 0 0
                  CHANNELS 3 Zrotation Xrotation Yrotation
                  JOINT LeftHand
                  {
                    OFFSET 24.5451 1.52588e-005 0
                    CHANNELS 3 Zrotation Xrotation Yrotation
                    End Site
                    {
                      OFFSET 0 0 0
                    }
                  }
                }
              }
            }
            JOINT Neck
            {
              OFFSET 5.0226 -0.0266342 0
              CHANNELS 3 Zrotation Xrotation Yrotation
              JOINT Head
              {
                OFFSET 6.69364 2.86102e-005 0
                CHANNELS 3 Zrotation Xrotation Yrotation
                End Site
                {
                  OFFSET 0 0 0
                }
              }
            }
          }
        }
      }
    }
  }
}
MOTION
Frames:	6
Frame Time:	0.0333333
52.495 93.3941 130.511 91.3365 -52.3309 96.2652 -173.216 7.83676 94.9079 -27.9245 18.1151 -2.21803 65.999 6.16866 16.8044 33.6658 2.07183 7.51909 172.585 17.3305 80.6345 -12.3741 4.47273 1.09136 54.4109 2.43055 1.70781 27.4337 -1.06048 4.89677 -0.630763 7.40669 -89.3237 12.0648 -0.934512 1.45176 0.393368 -0.869738 1.49147 -22.1403 -1.32761 1.10383 -2.12767 -1.3276 1.10383 91.8478 -57.3451 -96.6294 29.5728 56.7219 -31.5719 -15.5572 -12.6983 -132.274 -11.4384 -1.65203 9.2195 -90.1503 -46.4373 77.7015 -9.92848 16.3456 -55.1511 13.0915 3.52912 -107.723 11.7172 1.24923 -0.459022 -43.3136 -15.6869 -26.5986 47.827 -18.6246 7.13236 
52.4914 93.313 130.615 91.5354 -52.5529 96.447 -173.018 7.82558 95.0269 -28.197 17.578 -2.35256 66.2507 6.30583 16.5142 33.7447 2.33029 7.27441 172.597 17.5808 80.7536 -13.0513 3.80094 1.03546 54.6725 2.18588 1.19084 27.8621 -1.24693 4.80901 -0.598023 7.40495 -89.3436 12.0679 -0.878866 1.4061 0.396415 -0.816135 1.44341 -22.1372 -1.26079 1.07701 -2.12451 -1.2608 1.077 92.0455 -56.7327 -96.454 30.3132 56.8116 -31.701 -14.6916 -12.9432 -132.461 -10.7045 -1.37117 9.64679 -90.2266 -46.5126 77.6006 -10.7102 15.77 -55.8139 12.5917 4.92438 -107.278 12.3142 1.3374 -0.52088 -46.5835 -17.6385 -29.4237 62.0516 -18.4912 9.99562 
52.6873 93.224 130.533 93.0779 -52.0682 96.4123 -173.709 6.20592 93.5034 -27.6 17.4305 -1.99693 65.8277 5.6714 16.8619 33.9442 2.78771 6.97782 171.806 18.3294 79.2703 -15.9394 3.24973 0.906579 55.5421 1.8308 2.01692 28.542 -1.37217 4.17989 -0.659268 7.46797 -89.296 11.9426 -0.979032 1.50988 0.271103 -0.911659 1.55149 -22.2625 -1.38752 1.14589 -2.24987 -1.38752 1.14588 92.3557 -56.0466 -96.1275 31.461 57.4655 -32.1835 -12.0615 -14.3051 -133.199 -8.30844 -0.466568 10.4685 -91.0675 -47.3082 76.4927 -10.6877 15.5762 -55.3296 11.3381 5.93139 -106.723 13.3196 1.50427 -0.81461 -20.8208 -12.0625 -15.821 3.48038 -13.7957 -5.90433 
52.6719 93.1464 130.7 93.4856 -52.4343 96.6832 -173.641 5.87188 93.4914 -27.6749 17.4367 -1.97604 65.8028 5.60719 17.0835 34.1254 2.95846 7.12685 171.722 18.969 79.2878 -17.4616 2.46048 0.933207 55.86 1.65248 2.28178 29.1894 -1.30504 3.03435 -0.565816 7.4718 -89.3624 11.9338 -0.824539 1.36063 0.26238 -0.763845 1.39558 -22.2711 -1.19534 1.04994 -2.25849 -1.19533 1.04995 92.6323 -56.5048 -95.6549 29.6746 57.5622 -31.6094 -12.8314 -13.4535 -133.334 -8.5912 -0.573794 10.3797 -92.2177 -47.8689 74.878 -10.423 14.8058 -55.582 10.8624 7.34808 -106.229 15.0301 1.68786 -0.0700531 -17.8649 -13.9736 -15.1057 1.15068 -14.6879 -7.28969 
52.6256 93.0191 130.902 93.6968 -52.8513 96.683 -173.587 5.75904 93.4114 -27.9771 17.4929 -2.03405 65.8397 5.71841 17.5958 34.1714 2.9764 7.20892 171.774 19.7901 79.2814 -19.0789 2.24334 0.854597 56.4528 1.28496 2.26661 29.6335 -1.54846 3.06064 -0.50918 7.47796 -89.4682 11.9208 -0.761835 1.14261 0.249506 -0.710816 1.17502 -22.2849 -1.07002 0.860846 -2.27224 -1.07002 0.860836 93.2135 -55.2752 -95.0146 30.5569 57.9399 -32.1158 -13.3024 -13.5433 -134.006 -8.46398 -0.522943 10.4496 -93.4197 -48.9472 73.3527 -8.70594 14.464 -56.0019 10.032 7.33523 -105.912 15.6697 1.79974 -0.401313 -17.8616 -13.8174 -13.7152 0.851295 -14.5605 -9.01502 
52.6988 92.8727 131.151 94.4447 -53.3667 97.2739 -173.478 5.24988 93.425 -28.3029 16.9473 -1.99305 66.1137 5.99214 17.8273 34.2683 3.13007 7.18093 171.897 20.0262 79.4496 -20.4031 2.22013 0.621386 57.189 0.574873 2.37307 29.6846 -1.58135 3.07771 -0.453297 7.51799 -89.5508 11.8401 -0.690067 0.969324 0.168975 -0.646741 0.998747 -22.3659 -0.949491 0.71713 -2.35323 -0.949481 0.717121 93.505 -54.8592 -94.655 29.7103 57.045 -31.5067 -13.7961 -11.9767 -134.124 -8.20258 -0.42993 10.404 -94.1535 -49.4768 72.4074 -8.32208 13.6578 -55.7966 8.65575 8.52489 -106.189 16.2398 1.87555 -0.326013 -18.2546 -13.8355 -14.0554 1.81198 -14.6531 -7.92648 
